# xmcd
#
# Track frame offsets: 
#        150
#        20268
#        37500
#        57639
#        78176
#        95000
#        117018
#        140076
#        156447
#        173013
#        194840
#        219547
#        244724
#
# Disc length: 3752 seconds
#
# Revision: 1
# Processed by: cddbd v1.5.2PL0 Copyright (c) Steve Scherf et al.
# Submitted via: ExactAudioCopyFreeDBPlugin 1.0
#
DISCID=af0ea60d
DTITLE=Garrett Mason - I'm Just A Man
DYEAR=2005
DGENRE=Blues
TTITLE0=Remedy
TTITLE1=Sittin' On The Dock
TTITLE2=Later On Tonight
TTITLE3=Go Down To The River
TTITLE4=She's Gone
TTITLE5=Lonely Child
TTITLE6=Before It Rains
TTITLE7=Crazy Little Women
TTITLE8=She Won't Be True
TTITLE9=Conversations - featuring Carter Chaplin
TTITLE10=Today Is The Day
TTITLE11=Thought I Saw The Light
TTITLE12=I'm Just A Man
EXTD=as heard on\nBluesfestRadio.com
EXTT0=
EXTT1=
EXTT2=
EXTT3=
EXTT4=
EXTT5=
EXTT6=
EXTT7=
EXTT8=
EXTT9=
EXTT10=
EXTT11=
EXTT12=
PLAYORDER=
